<mxfile host="app.diagrams.net" modified="2024-02-25T06:56:18.997Z" agent="Mozilla/5.0 (Macintosh; Intel Mac OS X 10_15_7) AppleWebKit/605.1.15 (KHTML, like Gecko) Version/16.6 Safari/605.1.15" version="23.1.6" etag="blia_a_g7TjYZkq607g1" type="github">
  <diagram name="Page-1" id="gm_NlOtIQWlbdxoq0_KC">
    <mxGraphModel>
      <root>
        <mxCell id="0" />
        <mxCell id="1" parent="0" />
      </root>
    </mxGraphModel>
  </diagram>
</mxfile>
